<svg width="74" height="98" viewBox="0 0 74 98" fill="none" xmlns="http://www.w3.org/2000/svg">
<path d="M11.96 36.8018L11.9607 36.8011C13.6231 35.0649 16.5 36.2634 16.5 38.5761V54.9432C16.5 62.7425 22.745 69.2722 30.6434 69.373C38.6342 69.4773 45.1667 63.0709 45.1667 55.1251C45.1667 50.1614 42.6376 46.4338 39.7132 43.2493C38.5364 41.9679 37.2378 40.715 35.9733 39.4948C35.6754 39.2074 35.3794 38.9219 35.0874 38.6381C33.5277 37.123 32.042 35.6268 30.7496 34.0214C28.1985 30.8524 26.4614 27.3374 26.6172 22.6771C26.7759 17.9315 28.9058 11.7107 34.764 3.20564C36.3401 0.917962 39.625 2.12939 39.625 4.56707C39.625 10.1209 41.9257 14.5295 45.1385 18.4386C47.5144 21.3294 50.5127 24.0807 53.5314 26.8506C54.5058 27.7447 55.4823 28.6408 56.4407 29.5441C64.4021 37.0481 72 45.7876 72 61.25C72 80.3969 56.3103 96 37 96C17.6897 96 2 80.3969 2 61.25C2 50.6533 7.06772 41.906 11.96 36.8018Z" stroke="white" stroke-width="4"/>
</svg>
